<?xml version="1.0" encoding="utf-8"?>
<svg xmlns="http://www.w3.org/2000/svg" height="512pt" version="1.1" viewBox="0 0 512 512" width="512pt">
<path d="M 0.00 0.00 L 512.00 0.00 L 512.00 512.00 L 0.00 512.00 L 0.00 0.00 Z" fill="transparent" opacity="1.00" stroke="transparent" stroke-width="0.25"/>
<path d="M 261.39 45.28 C 269.26 37.36 281.38 35.44 292.05 37.05 C 300.09 38.08 307.17 42.63 312.91 48.13 C 324.04 59.33 325.58 79.66 314.34 91.30 C 310.54 95.58 304.42 96.26 299.04 96.24 C 272.02 96.03 245.01 96.19 218.00 96.39 C 210.06 96.72 204.55 88.28 205.19 80.95 C 205.05 73.66 211.33 66.70 218.69 66.48 C 224.91 65.59 231.26 66.93 237.43 65.56 C 243.11 64.48 248.92 65.33 254.66 64.72 C 254.67 57.73 256.35 50.42 261.39 45.28 Z" fill="#d4e4f8" opacity="1.00" stroke="#d4e4f8" stroke-width="0.25"/>
<path d="M 329.32 96.49 C 333.07 95.37 337.14 95.46 340.97 96.12 C 345.31 97.03 346.78 101.79 349.98 104.25 C 355.06 105.32 360.76 103.63 365.40 106.54 C 371.66 110.06 372.85 119.14 368.83 124.76 C 366.52 127.72 362.61 128.51 359.05 128.38 C 345.04 128.15 331.02 128.36 317.01 128.35 C 315.12 128.25 313.12 128.38 311.36 127.56 C 303.94 123.73 302.72 112.22 308.32 106.39 C 312.65 103.78 317.98 105.08 322.77 104.58 C 324.94 101.89 326.01 98.09 329.32 96.49 Z" fill="#d3e4f7" opacity="1.00" stroke="#d3e4f7" stroke-width="0.25"/>
<path d="M 250.13 105.56 C 251.53 104.50 252.65 107.01 251.42 107.83 C 249.98 108.99 248.76 106.38 250.13 105.56 Z" fill="#3c76b7" opacity="1.00" stroke="#3c76b7" stroke-width="0.25"/>
<path d="M 259.19 105.29 C 260.83 105.28 260.66 108.03 259.09 108.03 C 257.42 108.02 257.62 105.30 259.19 105.29 Z" fill="#7f9bce" opacity="1.00" stroke="#7f9bce" stroke-width="0.25"/>
<path d="M 267.13 105.23 C 268.97 104.69 269.65 107.79 267.89 108.28 C 265.95 108.92 265.29 105.69 267.13 105.23 Z" fill="#6786bc" opacity="1.00" stroke="#6786bc" stroke-width="0.25"/>
<path d="M 241.37 106.16 C 243.00 105.64 243.56 106.19 243.04 107.82 C 241.40 108.33 240.84 107.78 241.37 106.16 Z" fill="#7895d0" opacity="1.00" stroke="#7895d0" stroke-width="0.25"/>
<path d="M 275.19 106.10 C 276.82 105.53 277.41 106.05 276.95 107.68 C 275.32 108.25 274.73 107.72 275.19 106.10 Z" fill="#8195bc" opacity="1.00" stroke="#8195bc" stroke-width="0.25"/>
<path d="M 283.39 106.07 C 284.39 104.64 287.03 106.23 285.78 107.70 C 284.77 109.09 282.18 107.53 283.39 106.07 Z" fill="#94a9c9" opacity="1.00" stroke="#94a9c9" stroke-width="0.25"/>
<path d="M 292.14 106.03 C 293.77 105.45 294.33 105.98 293.82 107.62 C 292.19 108.19 291.63 107.66 292.14 106.03 Z" fill="#85abd8" opacity="1.00" stroke="#85abd8" stroke-width="0.25"/>
<path d="M 276.34 113.33 C 277.72 113.81 277.43 115.57 277.94 116.69 C 277.23 116.75 275.82 116.88 275.11 116.95 C 275.40 115.70 275.06 114.10 276.34 113.33 Z" fill="#7aa0ce" opacity="1.00" stroke="#7aa0ce" stroke-width="0.25"/>
<path d="M 242.29 114.21 C 243.73 114.23 243.70 116.70 242.26 116.69 C 240.86 116.63 240.87 114.23 242.29 114.21 Z" fill="#839fda" opacity="1.00" stroke="#839fda" stroke-width="0.25"/>
<path d="M 249.17 114.28 C 251.19 113.11 252.59 114.95 251.96 116.90 C 249.90 117.78 248.16 116.46 249.17 114.28 Z" fill="#9fb5ea" opacity="1.00" stroke="#9fb5ea" stroke-width="0.25"/>
<path d="M 258.23 114.32 C 259.73 113.11 261.20 115.78 259.78 116.75 C 258.28 117.94 256.77 115.27 258.23 114.32 Z" fill="#81a5e3" opacity="1.00" stroke="#81a5e3" stroke-width="0.25"/>
<path d="M 267.15 114.15 C 268.71 112.97 269.93 115.80 268.61 116.73 C 267.04 117.92 265.81 115.08 267.15 114.15 Z" fill="#8ba6df" opacity="1.00" stroke="#8ba6df" stroke-width="0.25"/>
<path d="M 283.88 115.05 C 284.88 111.85 287.02 115.11 286.66 116.91 C 285.72 116.52 282.31 116.93 283.88 115.05 Z" fill="#6d98da" opacity="1.00" stroke="#6d98da" stroke-width="0.25"/>
<path d="M 292.31 114.34 C 293.80 113.10 295.26 115.80 293.87 116.78 C 292.38 117.99 290.91 115.31 292.31 114.34 Z" fill="#87afe3" opacity="1.00" stroke="#87afe3" stroke-width="0.25"/>
<path d="M 241.39 124.44 C 242.34 123.23 244.59 124.72 243.56 126.02 C 242.60 127.32 240.34 125.72 241.39 124.44 Z" fill="#09358b" opacity="1.00" stroke="#09358b" stroke-width="0.25"/>
<path d="M 249.32 124.19 C 250.35 122.67 252.72 124.49 251.63 125.91 C 250.61 127.46 248.20 125.61 249.32 124.19 Z" fill="#6786bc" opacity="1.00" stroke="#6786bc" stroke-width="0.25"/>
<path d="M 258.24 124.31 C 259.87 123.77 260.44 124.31 259.92 125.93 C 258.28 126.47 257.72 125.92 258.24 124.31 Z" fill="#768cd0" opacity="1.00" stroke="#768cd0" stroke-width="0.25"/>
<path d="M 266.46 124.15 C 267.54 122.59 269.74 124.63 268.68 125.98 C 267.59 127.54 265.34 125.50 266.46 124.15 Z" fill="#094faf" opacity="1.00" stroke="#094faf" stroke-width="0.25"/>
<path d="M 275.33 124.24 C 276.33 122.71 278.79 124.44 277.65 125.89 C 276.65 127.43 274.18 125.69 275.33 124.24 Z" fill="#4b7dbb" opacity="1.00" stroke="#4b7dbb" stroke-width="0.25"/>
<path d="M 284.22 124.25 C 285.19 122.73 287.72 124.32 286.53 125.80 C 285.57 127.36 282.95 125.74 284.22 124.25 Z" fill="#4c7bb3" opacity="1.00" stroke="#4c7bb3" stroke-width="0.25"/>
<path d="M 292.25 124.00 C 293.88 123.44 294.45 123.97 293.94 125.61 C 292.31 126.16 291.75 125.62 292.25 124.00 Z" fill="#7a8ecc" opacity="1.00" stroke="#7a8ecc" stroke-width="0.25"/>
<path d="M 103.15 158.08 C 108.05 157.77 113.02 157.29 117.92 157.87 C 120.95 158.80 123.66 160.49 126.45 161.96 L 126.54 162.31 C 126.77 163.10 127.01 163.89 127.27 164.68 C 127.02 167.96 126.17 171.15 125.11 174.25 C 124.32 174.30 122.73 174.41 121.94 174.46 C 121.54 174.24 120.74 173.79 120.34 173.57 C 120.00 171.72 119.77 169.86 119.53 168.00 C 117.99 168.23 116.45 168.44 114.92 168.69 C 114.43 168.79 113.45 168.98 112.96 169.08 C 112.62 173.71 112.71 178.36 112.75 183.01 C 113.15 208.67 112.65 234.33 112.67 259.99 C 112.73 266.58 112.35 273.19 113.08 279.75 C 113.50 279.77 114.33 279.81 114.74 279.83 C 116.60 279.85 118.46 279.82 120.32 279.81 C 120.89 277.65 121.50 275.51 122.07 273.35 C 122.27 277.86 122.53 282.37 122.17 286.87 C 122.11 288.16 122.05 289.46 122.00 290.76 C 115.59 291.51 109.09 291.03 102.65 291.18 C 103.05 254.12 102.59 217.06 102.85 180.00 C 102.96 172.69 102.58 165.37 103.15 158.08 Z" fill="#6397e9" opacity="1.00" stroke="#6397e9" stroke-width="0.25"/>
<path d="M 127.27 164.68 C 127.01 163.89 126.77 163.10 126.54 162.31 C 129.31 163.51 132.07 164.73 134.83 165.93 C 134.71 188.82 134.41 211.72 134.81 234.62 C 138.09 233.45 141.32 232.11 144.33 230.35 C 148.88 230.97 153.53 231.17 158.11 230.68 C 158.36 230.36 158.88 229.72 159.13 229.40 C 161.95 231.70 165.64 231.94 168.98 233.01 C 181.37 236.98 193.43 241.96 206.00 245.35 C 204.04 246.29 202.06 247.17 200.08 248.06 C 200.70 247.55 201.94 246.54 202.56 246.03 C 194.64 243.49 186.72 240.98 178.92 238.12 C 172.78 236.12 166.79 233.31 160.26 232.85 C 160.11 232.84 159.81 232.81 159.66 232.80 C 154.87 232.83 149.78 231.68 145.18 233.26 C 143.81 245.72 144.83 258.37 145.64 270.87 C 145.22 270.00 144.82 269.12 144.46 268.23 C 144.72 256.48 144.00 244.71 144.61 232.95 C 141.21 233.94 137.88 235.15 134.70 236.71 C 134.29 236.61 133.47 236.41 133.06 236.31 C 132.87 246.90 132.90 257.49 132.82 268.09 C 129.95 268.70 127.66 270.47 126.42 273.15 C 126.15 273.29 125.60 273.57 125.33 273.71 C 125.40 279.46 125.38 285.21 125.16 290.95 C 124.37 290.90 122.79 290.80 122.00 290.76 C 122.05 289.46 122.11 288.16 122.17 286.87 C 122.27 287.86 122.62 288.72 123.24 289.46 C 123.48 289.56 123.96 289.76 124.20 289.86 C 124.78 286.60 124.49 283.30 124.51 280.02 C 124.26 249.69 124.43 219.36 124.69 189.03 C 124.81 184.11 124.41 179.15 125.11 174.25 C 126.17 171.15 127.02 167.96 127.27 164.68 Z" fill="#4b83db" opacity="1.00" stroke="#4b83db" stroke-width="0.25"/>
<path d="M 114.92 168.69 C 116.45 168.44 117.99 168.23 119.53 168.00 C 119.77 169.86 120.00 171.72 120.34 173.57 C 120.74 173.79 121.54 174.24 121.94 174.46 C 122.72 194.29 122.18 214.16 122.18 234.00 C 121.89 247.12 122.65 260.25 122.07 273.35 C 121.50 275.51 120.89 277.65 120.32 279.81 C 118.46 279.82 116.60 279.85 114.74 279.83 C 115.24 259.56 114.74 239.28 114.98 219.01 C 115.20 202.23 115.23 185.46 114.92 168.69 Z" fill="#77a2ea" opacity="1.00" stroke="#77a2ea" stroke-width="0.25"/>
<path d="M 112.96 169.08 C 113.45 168.98 114.43 168.79 114.92 168.69 C 115.23 185.46 115.20 202.23 114.98 219.01 C 114.74 239.28 115.24 259.56 114.74 279.83 C 114.33 279.81 113.50 279.77 113.08 279.75 C 112.35 273.19 112.73 266.58 112.67 259.99 C 112.65 234.33 113.15 208.67 112.75 183.01 C 112.71 178.36 112.62 173.71 112.96 169.08 Z" fill="#abc1ea" opacity="1.00" stroke="#abc1ea" stroke-width="0.25"/>
<path d="M 121.94 174.46 C 122.73 174.41 124.32 174.30 125.11 174.25 C 124.41 179.15 124.81 184.11 124.69 189.03 C 124.43 219.36 124.26 249.69 124.51 280.02 C 124.49 283.30 124.78 286.60 124.20 289.86 C 123.96 289.76 123.48 289.56 123.24 289.46 C 122.62 288.72 122.27 287.86 122.17 286.87 C 122.53 282.37 122.27 277.86 122.07 273.35 C 122.65 260.25 121.89 247.12 122.18 234.00 C 122.18 214.16 122.72 194.29 121.94 174.46 Z" fill="#c2d0ee" opacity="1.00" stroke="#c2d0ee" stroke-width="0.25"/>
<path d="M 444.91 180.88 C 448.57 176.78 455.60 176.71 459.36 180.74 C 462.96 184.00 464.24 188.85 467.06 192.68 C 464.81 195.24 461.97 198.05 462.31 201.76 C 462.13 205.50 462.86 209.27 462.28 212.99 C 460.66 217.13 457.93 220.77 454.40 223.47 C 453.95 217.65 453.97 211.80 453.77 205.97 C 453.78 204.39 453.24 202.90 452.63 201.48 C 451.43 208.17 452.63 214.97 452.57 221.72 C 449.37 217.87 446.58 213.70 443.51 209.76 C 443.05 204.32 442.60 198.75 440.10 193.79 C 440.75 189.23 441.90 184.50 444.91 180.88 Z" fill="#ebeff7" opacity="1.00" stroke="#ebeff7" stroke-width="0.25"/>
<path d="M 467.06 192.68 C 472.17 190.18 479.64 192.12 483.05 196.89 C 486.43 201.47 486.41 207.93 484.17 212.99 C 481.60 217.66 475.82 218.93 470.91 219.15 C 471.21 217.89 471.56 216.65 471.92 215.41 C 468.53 216.50 465.07 217.33 461.57 217.94 C 463.33 215.02 465.54 212.41 467.85 209.91 C 466.16 210.81 464.47 211.71 462.77 212.59 C 462.74 208.97 462.57 205.36 462.31 201.76 C 461.97 198.05 464.81 195.24 467.06 192.68 Z" fill="#e0e7f2" opacity="1.00" stroke="#e0e7f2" stroke-width="0.25"/>
<path d="M 423.32 201.24 C 425.84 194.57 433.84 193.32 440.10 193.79 C 442.60 198.75 443.05 204.32 443.51 209.76 C 443.85 214.51 448.21 217.39 450.78 221.00 C 449.76 222.22 449.03 223.75 447.69 224.66 C 444.05 225.29 440.44 223.93 436.91 223.23 C 438.28 224.54 439.64 225.86 441.08 227.10 C 429.48 225.29 419.89 212.96 423.32 201.24 Z" fill="#d5e1f3" opacity="1.00" stroke="#d5e1f3" stroke-width="0.25"/>
<path d="M 47.90 202.95 C 47.59 200.13 48.23 195.85 51.99 196.13 C 63.32 195.94 74.68 196.29 86.02 196.05 C 88.65 195.79 91.39 196.69 92.88 198.97 C 93.68 201.88 93.32 204.94 93.37 207.92 C 93.30 235.73 93.53 263.54 93.37 291.34 C 78.45 291.45 63.53 291.43 48.62 291.40 C 48.37 261.92 49.15 232.42 47.90 202.95 Z" fill="#bfd8f5" opacity="1.00" stroke="#bfd8f5" stroke-width="0.25"/>
<path d="M 452.63 201.48 C 453.24 202.90 453.78 204.39 453.77 205.97 C 453.97 211.80 453.95 217.65 454.40 223.47 C 457.93 220.77 460.66 217.13 462.28 212.99 C 462.86 209.27 462.13 205.50 462.31 201.76 C 462.57 205.36 462.74 208.97 462.77 212.59 C 464.47 211.71 466.16 210.81 467.85 209.91 C 465.54 212.41 463.33 215.02 461.57 217.94 C 459.64 221.05 457.04 223.66 454.43 226.19 C 454.44 229.51 454.50 232.83 454.53 236.15 C 454.55 238.97 454.54 241.79 454.47 244.62 C 465.62 246.12 476.95 244.44 488.12 245.54 C 473.78 246.20 459.39 245.54 445.03 245.79 C 440.28 245.62 435.50 246.12 430.78 245.50 C 438.06 244.84 445.39 245.44 452.68 245.10 C 453.07 239.45 452.34 233.82 452.49 228.17 C 452.64 225.65 452.39 223.05 450.78 221.00 C 448.21 217.39 443.85 214.51 443.51 209.76 C 446.58 213.70 449.37 217.87 452.57 221.72 C 452.63 214.97 451.43 208.17 452.63 201.48 Z" fill="#031056" opacity="1.00" stroke="#031056" stroke-width="0.25"/>
<path d="M 55.29 208.36 C 65.16 208.35 75.03 208.47 84.90 208.35 C 84.93 209.50 84.94 210.65 84.94 211.81 C 75.04 212.09 65.14 211.71 55.24 211.74 C 55.26 210.61 55.27 209.48 55.29 208.36 Z" fill="#fffffd" opacity="1.00" stroke="#fffffd" stroke-width="0.25"/>
<path d="M 343.80 223.66 C 341.32 215.25 349.79 208.04 357.55 207.66 C 362.31 209.73 366.61 212.89 369.13 217.54 C 370.13 217.13 371.13 216.71 372.12 216.28 C 370.08 213.94 368.10 211.56 366.15 209.16 C 366.86 208.99 368.29 208.66 369.00 208.50 C 372.23 209.73 375.45 211.64 377.19 214.75 C 380.17 220.01 380.50 226.20 380.65 232.11 C 381.82 232.89 382.42 233.89 382.45 235.12 C 380.96 235.10 379.47 235.08 377.98 235.05 C 376.05 235.08 374.13 235.22 372.22 235.38 C 364.86 234.30 357.83 231.63 350.43 230.64 C 347.05 228.33 342.63 228.78 339.32 226.46 C 339.64 225.63 340.28 223.97 340.60 223.14 C 341.66 223.30 342.73 223.47 343.80 223.66 Z" fill="#fea32f" opacity="1.00" stroke="#fea32f" stroke-width="0.25"/>
<path d="M 357.55 207.66 C 361.39 207.11 365.25 207.64 369.00 208.50 C 368.29 208.66 366.86 208.99 366.15 209.16 C 368.10 211.56 370.08 213.94 372.12 216.28 C 371.13 216.71 370.13 217.13 369.13 217.54 C 366.61 212.89 362.31 209.73 357.55 207.66 Z" fill="#fbb64a" opacity="1.00" stroke="#fbb64a" stroke-width="0.25"/>
<path d="M 461.57 217.94 C 465.07 217.33 468.53 216.50 471.92 215.41 C 471.56 216.65 471.21 217.89 470.91 219.15 C 469.78 224.28 470.17 230.22 466.43 234.38 C 463.22 237.26 458.47 237.33 454.53 236.15 C 454.50 232.83 454.44 229.51 454.43 226.19 C 457.04 223.66 459.64 221.05 461.57 217.94 Z" fill="#cfdaf3" opacity="1.00" stroke="#cfdaf3" stroke-width="0.25"/>
<path d="M 450.78 221.00 C 452.39 223.05 452.64 225.65 452.49 228.17 C 448.67 228.87 444.67 228.64 441.08 227.10 C 439.64 225.86 438.28 224.54 436.91 223.23 C 440.44 223.93 444.05 225.29 447.69 224.66 C 449.03 223.75 449.76 222.22 450.78 221.00 Z" fill="#c1cfed" opacity="1.00" stroke="#c1cfed" stroke-width="0.25"/>
<path d="M 222.45 224.78 C 230.66 220.87 240.58 220.13 248.89 224.18 C 248.58 227.13 248.35 230.09 248.20 233.06 C 247.73 233.20 246.78 233.47 246.31 233.61 C 246.12 232.60 245.94 231.60 245.75 230.59 C 245.46 230.59 244.88 230.59 244.60 230.59 C 240.47 230.50 236.35 230.51 232.23 230.48 C 232.19 231.16 232.11 232.51 232.07 233.19 C 232.03 233.69 231.97 234.67 231.94 235.17 C 230.48 233.64 229.02 232.11 227.55 230.59 C 226.26 234.20 225.76 238.01 224.97 241.75 L 224.55 240.20 C 224.39 239.67 224.06 238.60 223.89 238.07 C 223.43 238.14 222.50 238.26 222.04 238.33 C 226.65 235.34 225.20 228.62 222.45 224.78 Z" fill="#c4daf5" opacity="1.00" stroke="#c4daf5" stroke-width="0.25"/>
<path d="M 56.38 229.39 C 66.21 229.38 76.03 229.39 85.85 229.39 C 85.91 230.50 85.93 231.62 85.89 232.75 C 75.99 232.92 66.08 232.86 56.18 232.70 C 56.25 231.59 56.32 230.49 56.38 229.39 Z" fill="#fefffd" opacity="1.00" stroke="#fefffd" stroke-width="0.25"/>
<path d="M 232.23 230.48 C 236.35 230.51 240.47 230.50 244.60 230.59 C 242.16 235.11 236.20 232.72 232.07 233.19 C 232.11 232.51 232.19 231.16 232.23 230.48 Z" fill="#1651a6" opacity="1.00" stroke="#1651a6" stroke-width="0.25"/>
<path d="M 244.60 230.59 C 244.88 230.59 245.46 230.59 245.75 230.59 C 245.94 231.60 246.12 232.60 246.31 233.61 C 246.78 233.47 247.73 233.20 248.20 233.06 C 248.53 251.97 248.31 270.89 248.38 289.81 C 254.56 290.85 260.83 290.18 267.06 290.37 C 268.26 290.28 269.41 290.57 270.28 291.44 C 261.65 291.60 252.97 291.97 244.36 291.25 C 244.31 272.75 244.34 254.24 244.09 235.74 L 243.17 235.72 C 239.43 235.50 235.69 235.24 231.94 235.17 C 231.97 234.67 232.03 233.69 232.07 233.19 C 236.20 232.72 242.16 235.11 244.60 230.59 Z" fill="#cedff8" opacity="1.00" stroke="#cedff8" stroke-width="0.25"/>
<path d="M 344.80 228.93 C 346.40 229.38 348.14 229.58 349.61 230.45 C 350.10 230.82 351.07 231.57 351.56 231.94 L 352.27 233.29 C 349.77 233.25 347.27 233.21 344.78 233.18 C 344.78 232.12 344.79 229.99 344.80 228.93 Z" fill="#282253" opacity="1.00" stroke="#282253" stroke-width="0.25"/>
<path d="M 350.43 230.64 C 357.83 231.63 364.86 234.30 372.22 235.38 L 371.90 235.87 C 371.61 236.34 371.05 237.29 370.76 237.77 C 369.68 238.19 368.59 238.60 367.50 239.00 L 366.93 239.01 C 367.22 237.95 367.52 236.90 367.83 235.84 C 365.88 235.22 363.98 234.48 362.03 233.90 C 361.83 233.83 361.42 233.70 361.22 233.63 C 360.78 233.41 359.89 232.98 359.45 232.77 C 359.03 234.32 358.61 235.88 358.27 237.46 C 358.16 235.82 358.04 234.19 357.91 232.56 C 356.25 232.14 354.59 231.76 352.91 231.47 L 351.56 231.94 C 351.07 231.57 350.10 230.82 349.61 230.45 L 350.43 230.64 Z" fill="#474964" opacity="1.00" stroke="#474964" stroke-width="0.25"/>
<path d="M 224.97 241.75 C 225.76 238.01 226.26 234.20 227.55 230.59 C 229.02 232.11 230.48 233.64 231.94 235.17 C 235.69 235.24 239.43 235.50 243.17 235.72 C 239.39 235.67 235.61 235.80 231.83 235.88 C 231.31 254.26 231.75 272.65 231.63 291.03 C 223.56 291.68 215.47 291.42 207.39 291.52 L 207.41 290.99 C 207.42 290.79 207.43 290.39 207.44 290.20 C 213.25 290.47 219.08 290.51 224.89 290.22 C 224.91 274.07 224.38 257.89 224.97 241.75 Z" fill="#b7d1f4" opacity="1.00" stroke="#b7d1f4" stroke-width="0.25"/>
<path d="M 351.56 231.94 L 352.91 231.47 C 353.60 234.42 354.19 237.40 354.82 240.37 C 353.46 240.17 352.13 239.93 350.80 239.62 C 351.34 239.41 352.43 238.98 352.97 238.77 C 352.11 238.21 351.27 237.65 350.43 237.08 C 351.39 238.14 353.58 236.83 352.38 235.60 C 352.16 235.19 351.72 234.36 351.50 233.95 C 349.07 233.30 346.65 234.01 344.38 234.83 C 344.48 234.42 344.68 233.59 344.78 233.18 C 347.27 233.21 349.77 233.25 352.27 233.29 L 351.56 231.94 Z" fill="#af5d4c" opacity="1.00" stroke="#af5d4c" stroke-width="0.25"/>
<path d="M 352.91 231.47 C 354.59 231.76 356.25 232.14 357.91 232.56 C 358.04 234.19 358.16 235.82 358.27 237.46 C 358.22 237.92 358.14 238.85 358.09 239.31 C 357.58 239.57 356.57 240.10 356.06 240.36 L 354.82 240.37 C 354.19 237.40 353.60 234.42 352.91 231.47 Z" fill="#ff904c" opacity="1.00" stroke="#ff904c" stroke-width="0.25"/>
<path d="M 145.18 233.26 C 149.78 231.68 154.87 232.83 159.66 232.80 C 159.85 243.83 159.99 254.88 159.56 265.91 C 155.01 267.91 150.55 270.17 145.76 271.56 L 145.64 270.87 C 144.83 258.37 143.81 245.72 145.18 233.26 Z" fill="#fefefe" opacity="1.00" stroke="#fefefe" stroke-width="0.25"/>
<path d="M 159.66 232.80 C 159.81 232.81 160.11 232.84 160.26 232.85 C 160.27 243.37 159.84 253.93 160.71 264.42 L 161.06 265.40 C 161.38 265.93 162.01 267.00 162.32 267.53 C 162.18 275.20 162.42 282.87 162.58 290.53 C 161.26 290.63 159.93 290.77 158.61 290.91 L 157.59 291.02 C 157.91 283.97 157.69 276.92 157.71 269.87 C 153.56 271.37 149.42 272.92 145.29 274.50 C 145.15 279.93 144.60 285.39 145.22 290.81 L 144.44 290.96 C 144.42 285.64 144.51 280.31 144.39 274.98 C 143.22 275.55 142.07 276.12 140.90 276.68 C 138.87 277.62 136.82 278.54 134.76 279.42 C 134.62 278.32 134.53 277.22 134.48 276.13 C 137.53 274.97 140.72 274.13 143.59 272.54 C 144.92 271.59 144.08 269.61 144.46 268.23 C 144.82 269.12 145.22 270.00 145.64 270.87 L 145.76 271.56 C 150.55 270.17 155.01 267.91 159.56 265.91 C 159.99 254.88 159.85 243.83 159.66 232.80 Z" fill="#22579e" opacity="1.00" stroke="#22579e" stroke-width="0.25"/>
<path d="M 160.26 232.85 C 166.79 233.31 172.78 236.12 178.92 238.12 C 186.72 240.98 194.64 243.49 202.56 246.03 C 201.94 246.54 200.70 247.55 200.08 248.06 C 197.01 249.53 193.96 251.04 190.87 252.47 C 180.86 256.61 171.07 261.25 161.06 265.40 L 160.71 264.42 C 159.84 253.93 160.27 243.37 160.26 232.85 Z" fill="#fffefe" opacity="1.00" stroke="#fffefe" stroke-width="0.25"/>
<path d="M 359.45 232.77 C 359.89 232.98 360.78 233.41 361.22 233.63 C 361.42 233.70 361.83 233.83 362.03 233.90 C 361.49 237.35 359.50 241.16 361.51 244.48 C 363.43 247.74 366.18 251.72 370.55 250.85 C 370.59 250.01 370.67 248.33 370.71 247.49 C 372.49 247.74 374.28 248.00 376.07 248.26 C 374.91 248.73 373.76 249.20 372.61 249.67 C 373.15 249.95 373.69 250.23 374.25 250.50 L 376.00 251.52 C 375.56 254.21 375.44 257.38 373.13 259.25 C 370.80 261.07 367.57 260.86 364.79 260.71 C 363.16 259.94 361.57 259.08 360.06 258.11 C 356.85 255.08 354.26 251.47 351.89 247.76 C 351.07 246.46 350.16 245.21 349.24 243.98 C 351.00 240.90 354.56 241.56 357.41 240.64 C 357.58 240.31 357.92 239.64 358.09 239.31 C 358.14 238.85 358.22 237.92 358.27 237.46 C 358.61 235.88 359.03 234.32 359.45 232.77 Z" fill="#041042" opacity="1.00" stroke="#041042" stroke-width="0.25"/>
<path d="M 134.70 236.71 C 137.88 235.15 141.21 233.94 144.61 232.95 C 144.00 244.71 144.72 256.48 144.46 268.23 C 144.08 269.61 144.92 271.59 143.59 272.54 C 140.72 274.13 137.53 274.97 134.48 276.13 C 134.71 262.99 134.52 249.85 134.70 236.71 Z" fill="#fefffd" opacity="1.00" stroke="#fefffd" stroke-width="0.25"/>
<path d="M 344.38 234.83 C 346.65 234.01 349.07 233.30 351.50 233.95 C 351.72 234.36 352.16 235.19 352.38 235.60 C 351.90 235.97 350.92 236.71 350.43 237.08 C 351.27 237.65 352.11 238.21 352.97 238.77 C 352.43 238.98 351.34 239.41 350.80 239.62 C 349.25 239.27 347.76 238.67 346.31 238.03 C 345.80 237.21 345.30 236.39 344.81 235.56 L 344.38 234.83 Z" fill="#e98447" opacity="1.00" stroke="#e98447" stroke-width="0.25"/>
<path d="M 362.03 233.90 C 363.98 234.48 365.88 235.22 367.83 235.84 C 367.52 236.90 367.22 237.95 366.93 239.01 L 367.50 239.00 C 370.28 239.17 373.06 239.39 375.84 239.62 C 375.66 238.76 375.30 237.05 375.12 236.19 C 374.32 236.11 372.70 235.95 371.90 235.87 L 372.22 235.38 C 374.13 235.22 376.05 235.08 377.98 235.05 C 377.40 235.10 376.25 235.20 375.67 235.24 C 375.87 236.91 376.06 238.58 376.24 240.26 C 374.68 242.06 373.13 243.88 371.60 245.71 C 373.34 246.26 375.08 246.81 376.83 247.37 C 376.71 247.88 376.49 248.89 376.38 249.40 C 375.84 249.68 374.78 250.23 374.25 250.50 C 373.69 250.23 373.15 249.95 372.61 249.67 C 373.76 249.20 374.91 248.73 376.07 248.26 C 374.28 248.00 372.49 247.74 370.71 247.49 C 370.67 248.33 370.59 250.01 370.55 250.85 C 366.18 251.72 363.43 247.74 361.51 244.48 C 359.50 241.16 361.49 237.35 362.03 233.90 Z" fill="#da6b64" opacity="1.00" stroke="#da6b64" stroke-width="0.25"/>
<path d="M 133.06 236.31 C 133.47 236.41 134.29 236.61 134.70 236.71 C 134.52 249.85 134.71 262.99 134.48 276.13 C 134.53 277.22 134.62 278.32 134.76 279.42 C 135.34 282.95 135.26 286.53 135.07 290.10 L 135.04 290.99 C 131.75 290.97 128.45 290.89 125.16 290.95 C 125.38 285.21 125.40 279.46 125.33 273.71 C 125.60 273.57 126.15 273.29 126.42 273.15 C 127.66 270.47 129.95 268.70 132.82 268.09 C 132.90 257.49 132.87 246.90 133.06 236.31 Z" fill="#417ad8" opacity="1.00" stroke="#417ad8" stroke-width="0.25"/>
<path d="M 231.83 235.88 C 235.61 235.80 239.39 235.67 243.17 235.72 L 244.09 235.74 C 244.34 254.24 244.31 272.75 244.36 291.25 C 240.12 290.94 235.87 291.06 231.63 291.03 C 231.75 272.65 231.31 254.26 231.83 235.88 Z" fill="#7aa0ce" opacity="1.00" stroke="#7aa0ce" stroke-width="0.25"/>
<path d="M 344.81 235.56 C 345.30 236.39 345.80 237.21 346.31 238.03 C 346.67 240.28 347.83 242.24 349.24 243.98 C 350.16 245.21 351.07 246.46 351.89 247.76 C 352.49 249.66 352.97 251.60 353.43 253.54 C 352.21 254.12 350.99 254.71 349.77 255.28 C 348.64 255.09 347.50 254.90 346.37 254.74 C 346.07 254.37 345.48 253.63 345.18 253.26 C 344.01 251.79 344.78 249.80 344.79 248.11 C 345.36 243.94 344.96 239.74 344.81 235.56 Z" fill="#af5c5b" opacity="1.00" stroke="#af5c5b" stroke-width="0.25"/>
<path d="M 350.43 237.08 C 350.92 236.71 351.90 235.97 352.38 235.60 C 353.58 236.83 351.39 238.14 350.43 237.08 Z" fill="#6f3737" opacity="1.00" stroke="#6f3737" stroke-width="0.25"/>
<path d="M 370.76 237.77 C 371.05 237.29 371.61 236.34 371.90 235.87 C 372.70 235.95 374.32 236.11 375.12 236.19 C 375.30 237.05 375.66 238.76 375.84 239.62 C 373.06 239.39 370.28 239.17 367.50 239.00 C 368.59 238.60 369.68 238.19 370.76 237.77 Z" fill="#000b36" opacity="1.00" stroke="#000b36" stroke-width="0.25"/>
<path d="M 206.00 245.35 C 211.44 243.22 216.57 240.33 222.04 238.33 C 222.50 238.26 223.43 238.14 223.89 238.07 C 224.06 238.60 224.39 239.67 224.55 240.20 C 218.85 242.53 213.13 244.82 207.64 247.65 C 204.06 249.33 200.39 250.80 196.82 252.51 C 195.67 253.04 194.52 253.56 193.37 254.07 C 192.74 253.67 191.49 252.87 190.87 252.47 C 193.96 251.04 197.01 249.53 200.08 248.06 C 202.06 247.17 204.04 246.29 206.00 245.35 Z" fill="#09358b" opacity="1.00" stroke="#09358b" stroke-width="0.25"/>
<path d="M 349.24 243.98 C 347.83 242.24 346.67 240.28 346.31 238.03 C 347.76 238.67 349.25 239.27 350.80 239.62 C 352.13 239.93 353.46 240.17 354.82 240.37 L 356.06 240.36 C 356.57 240.10 357.58 239.57 358.09 239.31 C 357.92 239.64 357.58 240.31 357.41 240.64 C 354.56 241.56 351.00 240.90 349.24 243.98 Z" fill="#05255f" opacity="1.00" stroke="#05255f" stroke-width="0.25"/>
<path d="M 207.64 247.65 C 213.13 244.82 218.85 242.53 224.55 240.20 L 224.97 241.75 C 224.38 257.89 224.91 274.07 224.89 290.22 C 219.08 290.51 213.25 290.47 207.44 290.20 C 207.70 276.01 207.72 261.83 207.64 247.65 Z" fill="#fefefe" opacity="1.00" stroke="#fefefe" stroke-width="0.25"/>
<path d="M 371.60 245.71 C 373.13 243.88 374.68 242.06 376.24 240.26 C 376.53 242.62 376.70 244.99 376.83 247.37 C 375.08 246.81 373.34 246.26 371.60 245.71 Z" fill="#893f4f" opacity="1.00" stroke="#893f4f" stroke-width="0.25"/>
<path d="M 196.82 252.51 C 200.39 250.80 204.06 249.33 207.64 247.65 C 207.72 261.83 207.70 276.01 207.44 290.20 C 207.43 290.39 207.42 290.79 207.41 290.99 C 203.91 290.87 200.42 290.80 196.92 290.91 C 197.11 278.11 196.97 265.31 196.82 252.51 Z" fill="#6d98da" opacity="1.00" stroke="#6d98da" stroke-width="0.25"/>
<path d="M 351.89 247.76 C 354.26 251.47 356.85 255.08 360.06 258.11 C 360.35 261.18 360.71 264.25 361.24 267.29 C 360.55 267.66 359.18 268.40 358.50 268.77 C 355.15 263.53 350.40 259.42 346.37 254.74 C 347.50 254.90 348.64 255.09 349.77 255.28 C 350.99 254.71 352.21 254.12 353.43 253.54 C 352.97 251.60 352.49 249.66 351.89 247.76 Z" fill="#80464e" opacity="1.00" stroke="#80464e" stroke-width="0.25"/>
<path d="M 55.73 248.84 C 65.79 248.61 75.85 248.64 85.91 248.89 C 85.88 249.61 85.82 251.05 85.80 251.77 C 75.86 252.15 65.91 252.15 55.98 251.77 C 55.92 251.04 55.79 249.57 55.73 248.84 Z" fill="#fffffd" opacity="1.00" stroke="#fffffd" stroke-width="0.25"/>
<path d="M 161.06 265.40 C 171.07 261.25 180.86 256.61 190.87 252.47 C 191.49 252.87 192.74 253.67 193.37 254.07 C 192.36 254.50 191.36 254.93 190.35 255.36 C 180.96 259.30 171.67 263.49 162.32 267.53 C 162.01 267.00 161.38 265.93 161.06 265.40 Z" fill="#042574" opacity="1.00" stroke="#042574" stroke-width="0.25"/>
<path d="M 193.37 254.07 C 194.52 253.56 195.67 253.04 196.82 252.51 C 196.97 265.31 197.11 278.11 196.92 290.91 C 188.31 292.09 179.59 291.35 170.93 291.55 C 166.84 291.31 162.58 292.22 158.61 290.91 C 159.93 290.77 161.26 290.63 162.58 290.53 C 172.32 290.09 182.08 290.85 191.81 290.13 C 191.88 280.08 191.65 270.02 191.75 259.97 C 191.68 258.34 191.89 256.40 190.35 255.36 C 191.36 254.93 192.36 254.50 193.37 254.07 Z" fill="#bcd5f6" opacity="1.00" stroke="#bcd5f6" stroke-width="0.25"/>
<path d="M 332.26 261.22 C 336.63 258.67 340.56 255.39 345.18 253.26 C 345.48 253.63 346.07 254.37 346.37 254.74 C 350.40 259.42 355.15 263.53 358.50 268.77 C 360.85 274.51 361.22 280.80 361.32 286.93 C 359.08 281.83 357.87 276.09 354.07 271.84 C 352.23 269.73 349.44 268.96 346.96 267.91 L 347.16 268.56 C 348.30 273.84 350.68 278.71 352.30 283.83 C 354.45 290.18 356.53 296.57 359.31 302.68 C 360.14 304.66 361.68 306.18 363.22 307.63 C 364.20 309.65 365.49 311.50 366.81 313.32 C 367.58 314.46 368.36 315.59 369.15 316.74 C 368.27 316.91 367.39 317.08 366.51 317.25 C 366.30 317.67 365.86 318.50 365.64 318.92 C 362.83 319.56 361.21 321.79 360.31 324.41 C 359.60 324.93 358.88 325.42 358.15 325.90 C 359.28 327.72 360.37 329.64 360.42 331.84 C 355.59 328.40 351.49 324.07 347.67 319.57 C 344.94 316.32 342.21 313.06 339.71 309.62 C 337.56 306.67 335.45 303.69 333.45 300.64 C 329.64 294.84 325.87 288.94 323.32 282.46 C 322.58 279.91 321.92 277.33 321.49 274.71 C 321.89 268.48 327.67 264.59 332.26 261.22 Z" fill="#e5f0fd" opacity="1.00" stroke="#e5f0fd" stroke-width="0.25"/>
<path d="M 162.32 267.53 C 171.67 263.49 180.96 259.30 190.35 255.36 C 191.89 256.40 191.68 258.34 191.75 259.97 C 191.65 270.02 191.88 280.08 191.81 290.13 C 182.08 290.85 172.32 290.09 162.58 290.53 C 162.42 282.87 162.18 275.20 162.32 267.53 Z" fill="#fffffe" opacity="1.00" stroke="#fffffe" stroke-width="0.25"/>
<path d="M 360.06 258.11 C 361.57 259.08 363.16 259.94 364.79 260.71 L 363.60 261.91 C 361.47 262.88 364.28 265.02 364.29 262.50 C 365.70 266.30 366.31 270.37 368.10 274.05 L 367.87 274.38 C 367.23 275.29 366.59 276.20 365.96 277.12 C 365.63 274.10 363.48 271.90 361.69 269.65 C 361.57 269.06 361.35 267.88 361.24 267.29 C 360.71 264.25 360.35 261.18 360.06 258.11 Z" fill="#f7f6fa" opacity="1.00" stroke="#f7f6fa" stroke-width="0.25"/>
<path d="M 364.29 262.50 C 364.28 265.02 361.47 262.88 363.60 261.91 L 364.29 262.50 Z" fill="#86a5bb" opacity="1.00" stroke="#86a5bb" stroke-width="0.25"/>
<path d="M 57.03 270.82 C 55.27 271.35 55.37 267.53 57.06 268.01 C 66.63 267.64 76.25 267.51 85.83 267.95 C 85.80 268.66 85.74 270.07 85.70 270.77 C 76.15 270.93 66.57 271.46 57.03 270.82 Z" fill="#fefffd" opacity="1.00" stroke="#fefffd" stroke-width="0.25"/>
<path d="M 346.96 267.91 C 349.44 268.96 352.23 269.73 354.07 271.84 C 357.87 276.09 359.08 281.83 361.32 286.93 C 361.22 280.80 360.85 274.51 358.50 268.77 C 359.18 268.40 360.55 267.66 361.24 267.29 C 361.35 267.88 361.57 269.06 361.69 269.65 C 363.48 271.90 365.63 274.10 365.96 277.12 C 366.32 279.94 366.53 282.79 366.55 285.64 C 366.16 288.57 365.83 291.50 365.66 294.46 C 365.28 294.42 364.52 294.36 364.13 294.33 C 363.90 295.67 363.66 297.02 363.43 298.37 C 362.73 297.23 362.01 296.09 361.30 294.97 C 361.10 295.32 360.68 296.02 360.47 296.37 C 358.52 288.24 357.15 279.67 352.31 272.63 C 351.03 270.79 348.92 269.84 347.16 268.56 L 346.96 267.91 Z" fill="#0f48a7" opacity="1.00" stroke="#0f48a7" stroke-width="0.25"/>
<path d="M 158.99 269.09 L 160.30 268.99 C 161.21 275.98 161.22 283.12 161.07 290.16 C 160.46 290.31 159.25 290.61 158.64 290.76 C 158.86 283.55 157.93 276.21 158.99 269.09 Z" fill="#edf0f5" opacity="1.00" stroke="#edf0f5" stroke-width="0.25"/>
<path d="M 347.16 268.56 C 348.92 269.84 351.03 270.79 352.31 272.63 C 357.15 279.67 358.52 288.24 360.47 296.37 C 361.37 300.12 362.34 303.86 363.22 307.63 C 361.68 306.18 360.14 304.66 359.31 302.68 C 356.53 296.57 354.45 290.18 352.30 283.83 C 350.68 278.71 348.30 273.84 347.16 268.56 Z" fill="#c2dbf3" opacity="1.00" stroke="#c2dbf3" stroke-width="0.25"/>
<path d="M 145.29 274.50 C 149.42 272.92 153.56 271.37 157.71 269.87 C 157.69 276.92 157.91 283.97 157.59 291.02 C 157.40 291.24 157.02 291.67 156.83 291.89 C 153.33 292.42 149.72 292.44 146.23 291.88 C 145.97 291.61 145.47 291.08 145.22 290.81 C 144.60 285.39 145.15 279.93 145.29 274.50 Z" fill="#f8fbfc" opacity="1.00" stroke="#f8fbfc" stroke-width="0.25"/>
<path d="M 140.90 276.68 C 142.07 276.12 143.22 275.55 144.39 274.98 C 144.51 280.31 144.42 285.64 144.44 290.96 C 141.31 291.27 138.17 291.32 135.04 290.99 L 135.07 290.10 C 136.96 290.03 138.85 289.96 140.74 289.88 C 140.65 285.47 140.71 281.07 140.90 276.68 Z" fill="#c7d8ef" opacity="1.00" stroke="#c7d8ef" stroke-width="0.25"/>
<path d="M 321.49 274.71 C 321.92 277.33 322.58 279.91 323.32 282.46 C 321.06 286.99 320.93 292.10 320.67 297.05 C 320.75 289.61 319.83 282.04 321.49 274.71 Z" fill="#0c3e7c" opacity="1.00" stroke="#0c3e7c" stroke-width="0.25"/>
<path d="M 365.96 277.12 C 366.59 276.20 367.23 275.29 367.87 274.38 C 370.18 282.41 371.33 290.90 375.44 298.31 C 374.11 299.95 372.57 301.47 371.65 303.40 C 370.99 307.66 371.41 312.01 371.17 316.31 C 370.67 316.41 369.65 316.63 369.15 316.74 C 368.36 315.59 367.58 314.46 366.81 313.32 C 366.50 304.10 367.07 294.86 366.55 285.64 C 366.53 282.79 366.32 279.94 365.96 277.12 Z" fill="#c0dbf8" opacity="1.00" stroke="#c0dbf8" stroke-width="0.25"/>
<path d="M 134.76 279.42 C 136.82 278.54 138.87 277.62 140.90 276.68 C 140.71 281.07 140.65 285.47 140.74 289.88 C 138.85 289.96 136.96 290.03 135.07 290.10 C 135.26 286.53 135.34 282.95 134.76 279.42 Z" fill="#f0f5f8" opacity="1.00" stroke="#f0f5f8" stroke-width="0.25"/>
<path d="M 323.32 282.46 C 325.87 288.94 329.64 294.84 333.45 300.64 C 330.84 304.89 327.03 308.17 324.09 312.14 C 322.89 315.23 323.09 318.85 320.83 321.53 C 320.59 313.37 320.53 305.20 320.67 297.05 C 320.93 292.10 321.06 286.99 323.32 282.46 Z" fill="#185696" opacity="1.00" stroke="#185696" stroke-width="0.25"/>
<path d="M 365.66 294.46 C 365.83 291.50 366.16 288.57 366.55 285.64 C 367.07 294.86 366.50 304.10 366.81 313.32 C 365.49 311.50 364.20 309.65 363.22 307.63 C 362.34 303.86 361.37 300.12 360.47 296.37 C 360.68 296.02 361.10 295.32 361.30 294.97 C 362.01 296.09 362.73 297.23 363.43 298.37 C 363.66 297.02 363.90 295.67 364.13 294.33 C 364.52 294.36 365.28 294.42 365.66 294.46 Z" fill="#09358b" opacity="1.00" stroke="#09358b" stroke-width="0.25"/>
<path d="M 375.44 298.31 C 378.70 303.34 382.67 308.10 387.87 311.21 C 394.15 314.99 400.77 318.17 407.00 322.03 C 408.35 322.82 409.36 324.04 410.36 325.22 C 408.27 325.10 406.18 325.07 404.10 325.16 C 403.38 326.00 402.69 326.87 402.03 327.77 C 401.69 327.77 400.99 327.76 400.65 327.76 C 397.52 329.62 394.10 330.94 390.56 331.77 L 389.84 331.89 C 390.74 333.39 391.61 334.90 392.59 336.35 C 391.21 338.64 389.87 340.97 388.78 343.41 C 388.02 345.01 387.26 346.61 386.51 348.22 C 380.44 345.79 374.83 342.28 369.66 338.30 C 368.32 337.17 366.64 336.65 364.98 336.21 C 364.94 335.98 364.86 335.50 364.83 335.27 C 363.40 334.06 361.90 332.96 360.42 331.84 C 360.37 329.64 359.28 327.72 358.15 325.90 C 358.88 325.42 359.60 324.93 360.31 324.41 C 361.21 321.79 362.83 319.56 365.64 318.92 C 365.86 318.50 366.30 317.67 366.51 317.25 C 367.39 317.08 368.27 316.91 369.15 316.74 C 369.65 316.63 370.67 316.41 371.17 316.31 C 371.41 312.01 370.99 307.66 371.65 303.40 C 372.57 301.47 374.11 299.95 375.44 298.31 Z" fill="#dcecfb" opacity="1.00" stroke="#dcecfb" stroke-width="0.25"/>
<path d="M 324.09 312.14 C 327.03 308.17 330.84 304.89 333.45 300.64 C 335.45 303.69 337.56 306.67 339.71 309.62 C 336.95 314.31 333.33 318.65 332.07 324.07 C 330.81 329.28 330.07 334.61 328.60 339.78 C 326.99 339.99 325.38 340.21 323.78 340.39 C 322.32 340.14 320.88 339.86 319.45 339.52 C 319.29 339.15 318.96 338.41 318.80 338.04 C 320.11 332.62 320.63 327.08 320.83 321.53 C 323.09 318.85 322.89 315.23 324.09 312.14 Z" fill="#05458e" opacity="1.00" stroke="#05458e" stroke-width="0.25"/>
<path d="M 339.71 309.62 C 342.21 313.06 344.94 316.32 347.67 319.57 C 347.10 322.72 346.30 325.82 345.84 328.99 C 345.15 332.83 346.97 336.81 345.40 340.53 C 345.93 341.31 346.48 342.10 347.03 342.89 C 339.21 342.85 331.42 342.01 323.78 340.39 C 325.38 340.21 326.99 339.99 328.60 339.78 C 330.07 334.61 330.81 329.28 332.07 324.07 C 333.33 318.65 336.95 314.31 339.71 309.62 Z" fill="#00337a" opacity="1.00" stroke="#00337a" stroke-width="0.25"/>
<path d="M 414.40 326.06 C 416.79 320.73 417.47 314.55 420.99 309.81 C 433.64 309.05 446.35 310.01 459.01 310.34 C 460.12 310.56 462.36 310.12 462.30 311.93 C 459.11 324.66 452.93 336.47 449.85 349.25 C 435.08 348.99 420.29 349.56 405.54 348.48 C 405.62 348.27 405.78 347.84 405.86 347.63 C 406.10 346.93 406.57 345.53 406.80 344.83 C 405.93 344.26 405.04 343.72 404.14 343.22 C 406.45 343.73 407.88 342.09 409.14 340.45 C 408.60 340.15 407.50 339.54 406.96 339.24 C 407.44 339.26 408.39 339.29 408.87 339.31 C 409.27 338.59 410.07 337.15 410.46 336.43 C 411.19 334.92 411.82 333.36 412.42 331.80 C 413.10 329.89 413.72 327.96 414.40 326.06 Z" fill="#bfd6f1" opacity="1.00" stroke="#bfd6f1" stroke-width="0.25"/>
<path d="M 347.67 319.57 C 351.49 324.07 355.59 328.40 360.42 331.84 C 361.90 332.96 363.40 334.06 364.83 335.27 C 364.86 335.50 364.94 335.98 364.98 336.21 C 364.57 339.54 363.68 342.77 362.95 346.04 C 358.59 342.13 352.39 343.21 347.03 342.89 C 346.48 342.10 345.93 341.31 345.40 340.53 C 346.97 336.81 345.15 332.83 345.84 328.99 C 346.30 325.82 347.10 322.72 347.67 319.57 Z" fill="#00296d" opacity="1.00" stroke="#00296d" stroke-width="0.25"/>
<path d="M 404.10 325.16 C 406.18 325.07 408.27 325.10 410.36 325.22 C 411.72 325.41 413.06 325.74 414.40 326.06 C 413.72 327.96 413.10 329.89 412.42 331.80 C 410.52 328.63 407.59 326.35 404.10 325.16 Z" fill="#c48b90" opacity="1.00" stroke="#c48b90" stroke-width="0.25"/>
<path d="M 402.03 327.77 C 402.69 326.87 403.38 326.00 404.10 325.16 C 407.59 326.35 410.52 328.63 412.42 331.80 C 411.82 333.36 411.19 334.92 410.46 336.43 C 407.81 334.13 404.23 333.73 400.87 333.51 C 401.21 331.58 401.55 329.66 402.03 327.77 Z" fill="#b57579" opacity="1.00" stroke="#b57579" stroke-width="0.25"/>
<path d="M 438.07 331.05 C 441.00 329.75 442.45 325.54 446.09 326.19 C 448.16 326.02 450.14 327.87 449.90 329.98 C 449.60 332.96 448.20 335.81 448.87 338.86 C 447.79 337.82 446.70 336.81 445.61 335.80 C 444.84 337.58 445.19 340.38 442.96 341.10 C 440.88 342.41 437.72 341.53 437.26 338.96 C 437.17 336.32 437.16 333.57 438.07 331.05 Z" fill="#e7f0fc" opacity="1.00" stroke="#e7f0fc" stroke-width="0.25"/>
<path d="M 400.65 327.76 C 400.99 327.76 401.69 327.77 402.03 327.77 C 401.55 329.66 401.21 331.58 400.87 333.51 C 398.86 333.35 396.87 333.02 394.91 332.62 C 393.46 332.31 392.01 332.02 390.56 331.77 C 394.10 330.94 397.52 329.62 400.65 327.76 Z" fill="#c4dbf5" opacity="1.00" stroke="#c4dbf5" stroke-width="0.25"/>
<path d="M 389.84 331.89 L 390.56 331.77 C 392.01 332.02 393.46 332.31 394.91 332.62 C 399.78 333.08 402.75 337.30 406.96 339.24 C 407.50 339.54 408.60 340.15 409.14 340.45 C 407.88 342.09 406.45 343.73 404.14 343.22 C 400.12 341.25 395.83 339.55 392.59 336.35 C 391.61 334.90 390.74 333.39 389.84 331.89 Z" fill="#fefefd" opacity="1.00" stroke="#fefefd" stroke-width="0.25"/>
<path d="M 394.91 332.62 C 396.87 333.02 398.86 333.35 400.87 333.51 C 404.23 333.73 407.81 334.13 410.46 336.43 C 410.07 337.15 409.27 338.59 408.87 339.31 C 408.39 339.29 407.44 339.26 406.96 339.24 C 402.75 337.30 399.78 333.08 394.91 332.62 Z" fill="#54393a" opacity="1.00" stroke="#54393a" stroke-width="0.25"/>
<path d="M 364.98 336.21 C 366.64 336.65 368.32 337.17 369.66 338.30 C 374.83 342.28 380.44 345.79 386.51 348.22 L 387.59 348.37 C 380.75 349.16 373.86 348.70 367.00 348.67 C 360.62 348.41 354.21 348.62 347.86 347.86 C 352.74 348.20 357.63 348.23 362.51 348.29 C 362.62 347.73 362.84 346.60 362.95 346.04 C 363.68 342.77 364.57 339.54 364.98 336.21 Z" fill="#fefefe" opacity="1.00" stroke="#fefefe" stroke-width="0.25"/>
<path d="M 388.78 343.41 C 389.87 340.97 391.21 338.64 392.59 336.35 C 395.83 339.55 400.12 341.25 404.14 343.22 C 405.04 343.72 405.93 344.26 406.80 344.83 C 406.57 345.53 406.10 346.93 405.86 347.63 C 404.54 347.55 403.24 347.45 401.93 347.36 C 397.40 347.93 392.84 347.84 388.29 347.62 C 388.42 346.57 388.66 344.46 388.78 343.41 Z" fill="#c46f6e" opacity="1.00" stroke="#c46f6e" stroke-width="0.25"/>
<path d="M 318.09 340.72 C 318.32 339.82 318.56 338.92 318.80 338.04 C 318.96 338.41 319.29 339.15 319.45 339.52 C 320.88 339.86 322.32 340.14 323.78 340.39 C 331.42 342.01 339.21 342.85 347.03 342.89 C 352.39 343.21 358.59 342.13 362.95 346.04 C 362.84 346.60 362.62 347.73 362.51 348.29 C 357.63 348.23 352.74 348.20 347.86 347.86 C 347.11 347.79 345.59 347.66 344.83 347.59 C 344.74 352.13 344.77 356.68 344.39 361.21 C 342.15 373.00 345.01 385.25 343.07 397.13 C 342.11 403.35 342.98 409.66 342.45 415.91 C 341.66 407.79 343.56 399.45 341.48 391.49 C 339.55 402.64 343.41 414.80 338.03 425.25 C 336.88 423.28 336.11 421.13 335.33 419.00 C 335.18 421.25 334.96 423.49 334.74 425.73 L 334.52 425.67 C 334.19 423.25 333.75 420.85 333.18 418.49 C 332.49 414.90 331.57 411.37 330.60 407.86 C 330.30 409.45 330.00 411.05 329.72 412.65 C 329.21 412.49 328.19 412.19 327.68 412.03 C 327.87 408.02 328.54 404.01 328.05 400.00 C 326.04 381.31 324.02 362.62 321.34 344.01 C 321.32 342.12 319.50 341.45 318.09 340.72 Z" fill="#001a54" opacity="1.00" stroke="#001a54" stroke-width="0.25"/>
<path d="M 386.51 348.22 C 387.26 346.61 388.02 345.01 388.78 343.41 C 388.66 344.46 388.42 346.57 388.29 347.62 C 392.84 347.84 397.40 347.93 401.93 347.36 C 403.24 347.45 404.54 347.55 405.86 347.63 C 405.78 347.84 405.62 348.27 405.54 348.48 C 399.56 348.26 393.57 348.19 387.59 348.37 L 386.51 348.22 Z" fill="#052a6d" opacity="1.00" stroke="#052a6d" stroke-width="0.25"/>
<path d="M 344.83 347.59 C 345.59 347.66 347.11 347.79 347.86 347.86 C 354.21 348.62 360.62 348.41 367.00 348.67 C 373.86 348.70 380.75 349.16 387.59 348.37 C 393.57 348.19 399.56 348.26 405.54 348.48 C 420.29 349.56 435.08 348.99 449.85 349.25 C 458.14 349.23 466.43 349.33 474.73 349.15 C 475.03 352.83 475.21 356.53 475.27 360.23 C 471.92 360.38 468.58 360.51 465.24 360.46 C 465.02 360.83 464.59 361.55 464.38 361.91 C 464.42 361.39 464.50 360.33 464.54 359.81 C 445.36 359.80 426.17 359.27 407.00 359.59 C 406.49 359.84 405.48 360.33 404.97 360.58 C 403.71 361.17 402.28 360.91 400.95 360.98 C 382.09 360.46 363.24 361.32 344.39 361.21 C 344.77 356.68 344.74 352.13 344.83 347.59 Z" fill="#f7a160" opacity="1.00" stroke="#f7a160" stroke-width="0.25"/>
<path d="M 404.97 360.58 C 405.48 360.33 406.49 359.84 407.00 359.59 C 426.17 359.27 445.36 359.80 464.54 359.81 C 464.50 360.33 464.42 361.39 464.38 361.91 C 450.02 361.78 435.65 361.75 421.30 361.85 C 421.28 362.46 421.25 363.70 421.24 364.32 C 419.16 367.87 419.74 372.06 419.72 375.98 C 420.04 404.66 419.43 433.34 419.96 462.02 C 420.26 469.69 419.62 477.39 420.43 485.04 C 418.82 485.08 417.20 485.11 415.60 485.16 C 415.34 456.43 415.32 427.69 415.35 398.95 C 415.42 386.45 415.01 373.93 415.58 361.43 C 412.03 361.31 408.41 361.65 404.97 360.58 Z" fill="#0b1a52" opacity="1.00" stroke="#0b1a52" stroke-width="0.25"/>
<path d="M 343.07 397.13 C 345.01 385.25 342.15 373.00 344.39 361.21 C 348.50 361.95 352.68 361.75 356.84 361.66 C 353.12 375.11 350.99 388.97 347.76 402.56 C 346.62 409.03 344.84 415.42 344.12 421.94 C 345.24 438.13 347.54 454.21 349.42 470.33 C 345.29 470.01 341.16 469.76 337.08 469.05 C 335.49 463.10 335.60 456.90 335.28 450.80 C 335.26 439.99 332.73 429.31 333.18 418.49 C 333.75 420.85 334.19 423.25 334.52 425.67 L 334.74 425.73 C 334.96 423.49 335.18 421.25 335.33 419.00 C 336.11 421.13 336.88 423.28 338.03 425.25 C 343.41 414.80 339.55 402.64 341.48 391.49 C 343.56 399.45 341.66 407.79 342.45 415.91 C 342.98 409.66 342.11 403.35 343.07 397.13 Z" fill="#00154d" opacity="1.00" stroke="#00154d" stroke-width="0.25"/>
<path d="M 419.72 375.98 C 419.74 372.06 419.16 367.87 421.24 364.32 C 421.90 404.60 421.13 444.91 421.94 485.20 C 441.30 485.32 460.66 485.29 480.02 485.25 C 481.46 485.25 482.92 485.33 484.36 485.60 C 458.26 485.99 432.14 485.81 406.04 485.76 C 398.18 485.63 390.30 486.08 382.45 485.61 C 393.43 484.74 404.56 485.56 415.60 485.16 C 417.20 485.11 418.82 485.08 420.43 485.04 C 419.62 477.39 420.26 469.69 419.96 462.02 C 419.43 433.34 420.04 404.66 419.72 375.98 Z" fill="#000835" opacity="1.00" stroke="#000835" stroke-width="0.25"/>
<path d="M 77.29 374.33 C 80.54 371.64 84.27 375.11 86.53 377.44 C 93.93 386.06 98.56 396.98 99.77 408.27 C 96.96 408.93 94.04 408.93 91.35 407.81 C 89.96 407.90 88.58 408.07 87.21 408.32 C 88.08 406.25 88.46 404.03 88.67 401.81 C 85.37 406.93 83.90 413.17 79.41 417.53 C 78.58 409.57 80.33 401.44 78.60 393.61 C 77.30 401.51 77.41 409.65 78.23 417.60 C 77.74 417.79 76.77 418.19 76.28 418.39 L 76.18 418.25 C 75.94 417.94 75.46 417.32 75.22 417.02 C 75.51 416.79 76.09 416.33 76.38 416.10 C 73.32 412.38 71.04 407.91 67.04 405.06 C 65.72 404.05 64.28 403.22 62.86 402.38 C 64.59 391.95 68.55 380.90 77.29 374.33 Z" fill="#cad8ef" opacity="1.00" stroke="#cad8ef" stroke-width="0.25"/>
<path d="M 216.01 414.50 C 210.42 405.12 210.92 392.94 216.47 383.67 C 217.84 388.13 219.73 392.42 222.14 396.41 C 225.69 402.50 229.52 408.47 233.91 413.99 C 231.75 416.58 228.05 415.96 225.12 415.49 C 222.17 414.98 219.19 412.84 216.22 414.43 L 216.01 414.50 Z" fill="#3573d3" opacity="1.00" stroke="#3573d3" stroke-width="0.25"/>
<path d="M 216.47 383.67 C 218.40 384.49 220.26 385.48 222.01 386.64 C 222.57 393.41 227.87 398.19 230.41 404.20 C 227.80 402.14 226.14 399.23 224.03 396.73 C 223.56 396.65 222.61 396.49 222.14 396.41 C 219.73 392.42 217.84 388.13 216.47 383.67 Z" fill="#0b4aa7" opacity="1.00" stroke="#0b4aa7" stroke-width="0.25"/>
<path d="M 222.01 386.64 C 229.33 390.81 236.39 395.54 242.32 401.58 C 240.14 404.53 238.15 407.62 236.24 410.76 L 235.58 411.81 C 233.73 409.36 232.08 406.77 230.41 404.20 C 227.87 398.19 222.57 393.41 222.01 386.64 Z" fill="#165fc0" opacity="1.00" stroke="#165fc0" stroke-width="0.25"/>
<path d="M 78.60 393.61 C 80.33 401.44 78.58 409.57 79.41 417.53 C 83.90 413.17 85.37 406.93 88.67 401.81 C 88.46 404.03 88.08 406.25 87.21 408.32 C 85.55 412.10 82.67 415.10 80.39 418.49 C 79.35 421.60 79.85 424.97 79.67 428.20 C 79.66 428.73 79.63 429.80 79.61 430.33 C 79.57 433.61 79.49 436.90 79.46 440.19 C 87.18 440.83 94.95 440.63 102.70 440.63 C 102.72 440.82 102.76 441.19 102.79 441.38 C 87.92 441.47 73.10 440.38 58.22 440.73 L 58.13 440.23 C 64.66 440.32 71.19 440.36 77.72 440.22 C 77.79 437.21 77.77 434.21 77.78 431.21 C 77.78 429.32 77.78 427.42 77.75 425.54 C 77.66 423.09 77.79 420.48 76.28 418.39 C 76.77 418.19 77.74 417.79 78.23 417.60 C 77.41 409.65 77.30 401.51 78.60 393.61 Z" fill="#000835" opacity="1.00" stroke="#000835" stroke-width="0.25"/>
<path d="M 222.14 396.41 C 222.61 396.49 223.56 396.65 224.03 396.73 C 226.14 399.23 227.80 402.14 230.41 404.20 C 232.08 406.77 233.73 409.36 235.58 411.81 L 236.24 410.76 C 237.01 415.55 240.35 419.05 244.22 421.66 C 244.46 421.99 244.94 422.65 245.18 422.98 C 245.51 423.53 246.17 424.61 246.50 425.15 C 244.98 429.94 241.97 434.16 241.52 439.29 C 240.88 441.10 240.05 442.85 239.28 444.62 C 237.90 447.28 238.13 450.34 238.04 453.24 C 244.12 453.42 250.21 453.32 256.29 453.52 C 261.57 453.79 266.86 453.57 272.16 453.55 C 273.74 453.54 275.32 453.56 276.91 453.60 L 276.88 454.13 C 271.27 453.71 265.65 454.22 260.04 454.16 C 249.18 454.22 238.32 453.44 227.47 454.11 L 227.34 452.89 L 227.26 452.17 C 227.32 452.57 227.44 453.39 227.50 453.80 C 229.61 453.70 231.73 453.63 233.85 453.58 C 233.91 451.52 233.51 449.30 234.56 447.42 C 235.99 446.19 238.20 445.70 238.49 443.53 C 240.11 437.46 245.19 431.69 242.90 425.13 C 242.44 425.09 241.52 425.02 241.06 424.98 C 238.72 424.78 236.39 424.69 234.06 424.64 C 236.40 424.04 238.74 423.42 241.07 422.76 L 240.53 422.06 C 238.57 419.17 236.31 416.51 233.91 413.99 C 229.52 408.47 225.69 402.50 222.14 396.41 Z" fill="#042574" opacity="1.00" stroke="#042574" stroke-width="0.25"/>
<path d="M 236.24 410.76 C 238.15 407.62 240.14 404.53 242.32 401.58 C 245.00 405.14 248.19 408.59 249.31 413.03 C 250.17 416.88 247.34 420.14 245.18 422.98 C 244.94 422.65 244.46 421.99 244.22 421.66 C 240.35 419.05 237.01 415.55 236.24 410.76 Z" fill="#094faf" opacity="1.00" stroke="#094faf" stroke-width="0.25"/>
<path d="M 62.13 408.53 C 62.31 406.47 62.54 404.42 62.86 402.38 C 64.28 403.22 65.72 404.05 67.04 405.06 C 69.09 409.48 71.81 413.53 75.22 417.02 C 75.46 417.32 75.94 417.94 76.18 418.25 L 76.28 418.39 C 77.79 420.48 77.66 423.09 77.75 425.54 C 73.34 423.87 68.74 424.78 64.49 426.47 C 60.68 425.26 57.46 422.17 54.63 419.34 C 52.46 416.83 49.62 412.63 52.84 409.77 C 55.66 408.14 59.00 408.36 62.13 408.53 Z" fill="#d5def0" opacity="1.00" stroke="#d5def0" stroke-width="0.25"/>
<path d="M 67.04 405.06 C 71.04 407.91 73.32 412.38 76.38 416.10 C 76.09 416.33 75.51 416.79 75.22 417.02 C 71.81 413.53 69.09 409.48 67.04 405.06 Z" fill="#042574" opacity="1.00" stroke="#042574" stroke-width="0.25"/>
<path d="M 287.85 406.72 C 291.98 405.07 296.60 405.89 300.88 406.47 C 299.09 408.13 297.45 410.37 294.88 410.78 C 292.16 411.25 289.39 411.06 286.66 411.27 C 286.76 409.74 285.99 407.50 287.85 406.72 Z" fill="#9ec4ea" opacity="1.00" stroke="#9ec4ea" stroke-width="0.25"/>
<path d="M 91.35 407.81 C 94.04 408.93 96.96 408.93 99.77 408.27 C 101.35 407.81 102.93 408.19 104.45 408.63 C 101.68 409.69 98.59 410.68 96.94 413.36 C 91.95 419.10 87.29 425.80 79.67 428.20 C 79.85 424.97 79.35 421.60 80.39 418.49 C 82.67 415.10 85.55 412.10 87.21 408.32 C 88.58 408.07 89.96 407.90 91.35 407.81 Z" fill="#bacbe9" opacity="1.00" stroke="#bacbe9" stroke-width="0.25"/>
<path d="M 300.88 406.47 C 301.52 408.92 301.64 411.45 301.53 413.98 C 301.28 427.55 301.81 441.14 301.08 454.69 C 298.35 454.44 295.62 454.31 292.88 454.23 L 292.88 453.18 C 292.79 439.46 293.01 425.74 292.62 412.02 C 290.21 412.00 287.80 411.99 285.39 412.01 C 285.71 411.83 286.34 411.45 286.66 411.27 C 289.39 411.06 292.16 411.25 294.88 410.78 C 297.45 410.37 299.09 408.13 300.88 406.47 Z" fill="#8bb0e1" opacity="1.00" stroke="#8bb0e1" stroke-width="0.25"/>
<path d="M 330.60 407.86 C 331.57 411.37 332.49 414.90 333.18 418.49 C 332.73 429.31 335.26 439.99 335.28 450.80 C 334.56 456.15 334.37 461.54 333.97 466.91 C 330.53 465.25 327.04 463.59 323.25 462.92 C 325.48 446.03 326.78 429.04 327.68 412.03 C 328.19 412.19 329.21 412.49 329.72 412.65 C 330.00 411.05 330.30 409.45 330.60 407.86 Z" fill="#000b36" opacity="1.00" stroke="#000b36" stroke-width="0.25"/>
<path d="M 96.94 413.36 C 98.59 410.68 101.68 409.69 104.45 408.63 C 106.87 409.18 108.66 411.51 108.46 414.02 C 108.80 418.14 106.88 422.00 104.08 424.90 L 103.65 424.80 C 99.98 423.78 96.18 423.51 92.39 423.36 C 92.23 423.08 91.91 422.51 91.75 422.22 C 93.88 419.52 96.12 416.79 96.94 413.36 Z" fill="#afc2e3" opacity="1.00" stroke="#afc2e3" stroke-width="0.25"/>
<path d="M 271.05 414.11 C 275.64 412.34 280.71 413.38 285.39 412.01 C 286.11 413.40 286.87 414.79 287.45 416.25 C 287.02 417.54 286.00 418.47 284.60 418.52 C 279.69 419.01 274.75 418.47 269.82 418.76 C 270.15 417.20 268.95 414.67 271.05 414.11 Z" fill="#bcd4f3" opacity="1.00" stroke="#bcd4f3" stroke-width="0.25"/>
<path d="M 285.39 412.01 C 287.80 411.99 290.21 412.00 292.62 412.02 C 293.01 425.74 292.79 439.46 292.88 453.18 C 291.27 453.09 289.65 453.00 288.05 452.91 C 288.26 444.24 288.29 435.56 287.80 426.89 C 287.69 423.35 287.79 419.79 287.45 416.25 C 286.87 414.79 286.11 413.40 285.39 412.01 Z" fill="#326cb1" opacity="1.00" stroke="#326cb1" stroke-width="0.25"/>
<path d="M 216.22 414.43 C 219.19 412.84 222.17 414.98 225.12 415.49 C 228.05 415.96 231.75 416.58 233.91 413.99 C 236.31 416.51 238.57 419.17 240.53 422.06 C 234.51 422.44 229.11 419.79 223.54 418.02 C 223.15 419.11 222.77 420.21 222.39 421.31 C 220.00 419.33 217.89 417.04 216.22 414.43 Z" fill="#2063c8" opacity="1.00" stroke="#2063c8" stroke-width="0.25"/>
<path d="M 79.67 428.20 C 87.29 425.80 91.95 419.10 96.94 413.36 C 96.12 416.79 93.88 419.52 91.75 422.22 C 90.08 424.46 88.52 426.78 86.99 429.12 C 84.53 429.51 82.08 429.96 79.61 430.33 C 79.63 429.80 79.66 428.73 79.67 428.20 Z" fill="#6e92cf" opacity="1.00" stroke="#6e92cf" stroke-width="0.25"/>
<path d="M 287.45 416.25 C 287.79 419.79 287.69 423.35 287.80 426.89 C 286.50 426.91 285.19 426.92 283.89 426.93 C 280.36 426.79 276.84 427.06 273.34 427.53 C 272.06 427.55 270.78 427.57 269.51 427.57 C 269.65 424.63 269.80 421.70 269.82 418.76 C 274.75 418.47 279.69 419.01 284.60 418.52 C 286.00 418.47 287.02 417.54 287.45 416.25 Z" fill="#94b7e1" opacity="1.00" stroke="#94b7e1" stroke-width="0.25"/>
<path d="M 223.54 418.02 C 229.11 419.79 234.51 422.44 240.53 422.06 L 241.07 422.76 C 238.74 423.42 236.40 424.04 234.06 424.64 C 236.39 424.69 238.72 424.78 241.06 424.98 C 234.59 426.67 227.78 425.20 222.35 421.41 L 222.39 421.31 C 222.77 420.21 223.15 419.11 223.54 418.02 Z" fill="#0d44a7" opacity="1.00" stroke="#0d44a7" stroke-width="0.25"/>
<path d="M 86.99 429.12 C 88.52 426.78 90.08 424.46 91.75 422.22 C 91.91 422.51 92.23 423.08 92.39 423.36 C 96.18 423.51 99.98 423.78 103.65 424.80 C 99.00 428.65 92.71 428.80 86.99 429.12 Z" fill="#9eb4dd" opacity="1.00" stroke="#9eb4dd" stroke-width="0.25"/>
<path d="M 64.49 426.47 C 68.74 424.78 73.34 423.87 77.75 425.54 C 77.78 427.42 77.78 429.32 77.78 431.21 C 72.89 431.52 67.71 430.48 64.49 426.47 Z" fill="#9ab3e3" opacity="1.00" stroke="#9ab3e3" stroke-width="0.25"/>
<path d="M 269.04 427.57 L 269.51 427.57 C 270.78 427.57 272.06 427.55 273.34 427.53 C 273.32 429.30 273.31 431.10 272.78 432.82 C 267.61 432.81 262.44 432.82 257.27 432.97 C 257.66 435.46 258.05 437.95 258.43 440.45 C 257.93 440.68 256.93 441.13 256.42 441.36 L 256.38 441.71 C 256.37 442.21 256.34 443.19 256.33 443.69 C 250.62 443.37 244.97 444.43 239.28 444.62 C 240.05 442.85 240.88 441.10 241.52 439.29 C 245.95 439.76 250.38 440.19 254.83 440.38 C 257.22 437.64 254.45 432.25 257.51 429.65 C 260.71 428.39 264.26 428.69 267.63 428.50 C 267.99 428.27 268.69 427.80 269.04 427.57 Z" fill="#bbd5f1" opacity="1.00" stroke="#bbd5f1" stroke-width="0.25"/>
<path d="M 273.34 427.53 C 276.84 427.06 280.36 426.79 283.89 426.93 C 283.82 435.51 283.63 444.11 284.07 452.69 C 285.39 452.76 286.72 452.83 288.05 452.91 C 289.65 453.00 291.27 453.09 292.88 453.18 L 292.88 454.23 C 287.55 454.11 282.22 454.35 276.88 454.13 L 276.91 453.60 C 277.21 445.13 277.39 436.65 276.97 428.18 C 275.76 427.97 274.55 427.75 273.34 427.53 Z" fill="#3268a6" opacity="1.00" stroke="#3268a6" stroke-width="0.25"/>
<path d="M 283.89 426.93 C 285.19 426.92 286.50 426.91 287.80 426.89 C 288.29 435.56 288.26 444.24 288.05 452.91 C 286.72 452.83 285.39 452.76 284.07 452.69 C 283.63 444.11 283.82 435.51 283.89 426.93 Z" fill="#4b7dbb" opacity="1.00" stroke="#4b7dbb" stroke-width="0.25"/>
<path d="M 273.34 427.53 C 274.55 427.75 275.76 427.97 276.97 428.18 C 277.39 436.65 277.21 445.13 276.91 453.60 C 275.32 453.56 273.74 453.54 272.16 453.55 C 272.35 449.63 272.34 445.70 271.91 441.81 C 271.47 438.77 271.73 435.70 272.78 432.82 C 273.31 431.10 273.32 429.30 273.34 427.53 Z" fill="#4c7bb3" opacity="1.00" stroke="#4c7bb3" stroke-width="0.25"/>
<path d="M 198.09 435.96 C 202.00 431.56 208.01 433.69 213.02 434.07 C 210.90 442.94 212.21 452.12 212.13 461.13 C 207.26 460.33 202.31 459.92 197.37 460.16 C 198.31 452.12 197.36 444.00 198.09 435.96 Z" fill="#a4c6eb" opacity="1.00" stroke="#a4c6eb" stroke-width="0.25"/>
<path d="M 257.27 432.97 C 262.44 432.82 267.61 432.81 272.78 432.82 C 271.73 435.70 271.47 438.77 271.91 441.81 C 266.73 441.96 261.55 441.92 256.38 441.71 L 256.42 441.36 C 256.93 441.13 257.93 440.68 258.43 440.45 C 258.05 437.95 257.66 435.46 257.27 432.97 Z" fill="#96bae4" opacity="1.00" stroke="#96bae4" stroke-width="0.25"/>
<path d="M 213.02 434.07 C 215.39 435.78 214.03 439.16 214.39 441.60 L 215.45 441.48 C 214.52 445.06 214.77 448.79 215.08 452.44 C 215.10 454.51 215.07 456.58 215.08 458.65 C 208.74 466.29 215.02 476.78 211.38 485.31 C 204.75 485.42 198.12 485.42 191.50 485.25 C 191.77 478.82 191.24 472.36 191.93 465.96 C 192.07 463.04 194.35 460.27 197.37 460.16 C 202.31 459.92 207.26 460.33 212.13 461.13 C 212.21 452.12 210.90 442.94 213.02 434.07 Z" fill="#052a6d" opacity="1.00" stroke="#052a6d" stroke-width="0.25"/>
<path d="M 215.45 441.48 C 216.93 441.04 218.43 440.74 219.97 440.58 C 217.41 444.15 217.73 448.69 217.67 452.86 C 220.89 452.85 224.12 452.87 227.34 452.89 L 227.47 454.11 C 224.74 454.16 222.01 454.19 219.30 454.43 C 218.43 454.83 217.58 455.28 216.74 455.73 C 216.20 454.62 215.63 453.53 215.08 452.44 C 214.77 448.79 214.52 445.06 215.45 441.48 Z" fill="#4585cc" opacity="1.00" stroke="#4585cc" stroke-width="0.25"/>
<path d="M 219.97 440.58 C 226.07 439.96 226.52 447.83 227.26 452.17 L 227.34 452.89 C 224.12 452.87 220.89 452.85 217.67 452.86 C 217.73 448.69 217.41 444.15 219.97 440.58 Z" fill="#85b1e3" opacity="1.00" stroke="#85b1e3" stroke-width="0.25"/>
<path d="M 256.38 441.71 C 261.55 441.92 266.73 441.96 271.91 441.81 C 272.34 445.70 272.35 449.63 272.16 453.55 C 266.86 453.57 261.57 453.79 256.29 453.52 C 256.40 450.24 256.40 446.96 256.33 443.69 C 256.34 443.19 256.37 442.21 256.38 441.71 Z" fill="#3c76b7" opacity="1.00" stroke="#3c76b7" stroke-width="0.25"/>
<path d="M 239.28 444.62 C 244.97 444.43 250.62 443.37 256.33 443.69 C 256.40 446.96 256.40 450.24 256.29 453.52 C 250.21 453.32 244.12 453.42 238.04 453.24 C 238.13 450.34 237.90 447.28 239.28 444.62 Z" fill="#90bae8" opacity="1.00" stroke="#90bae8" stroke-width="0.25"/>
<path d="M 335.28 450.80 C 335.60 456.90 335.49 463.10 337.08 469.05 C 337.15 469.48 337.29 470.35 337.36 470.79 C 337.43 471.62 337.57 473.28 337.64 474.12 C 336.54 474.09 334.33 474.05 333.23 474.03 C 333.20 472.01 333.19 469.99 333.28 467.98 L 333.34 466.96 C 333.50 466.95 333.81 466.93 333.97 466.91 C 334.37 461.54 334.56 456.15 335.28 450.80 Z" fill="#fdfffe" opacity="1.00" stroke="#fdfffe" stroke-width="0.25"/>
<path d="M 215.08 452.44 C 215.63 453.53 216.20 454.62 216.74 455.73 C 217.58 455.28 218.43 454.83 219.30 454.43 C 219.85 464.43 219.45 474.44 219.42 484.45 C 218.10 484.52 216.78 484.64 215.47 484.80 C 215.43 476.08 215.40 467.36 215.08 458.65 C 215.07 456.58 215.10 454.51 215.08 452.44 Z" fill="#6786bc" opacity="1.00" stroke="#6786bc" stroke-width="0.25"/>
<path d="M 219.30 454.43 C 222.01 454.19 224.74 454.16 227.47 454.11 C 238.32 453.44 249.18 454.22 260.04 454.16 C 265.65 454.22 271.27 453.71 276.88 454.13 C 282.22 454.35 287.55 454.11 292.88 454.23 C 295.62 454.31 298.35 454.44 301.08 454.69 C 301.22 454.84 301.51 455.13 301.65 455.28 C 303.44 457.89 306.93 456.91 309.62 457.09 C 305.49 459.88 303.53 464.58 301.08 468.72 C 303.50 469.04 305.92 469.41 308.36 469.69 C 306.31 469.91 304.27 470.12 302.23 470.32 C 302.21 475.04 302.39 479.75 302.50 484.47 C 296.06 484.57 289.61 484.55 283.18 484.35 C 283.04 480.29 282.81 476.24 282.59 472.18 C 281.42 472.12 280.25 472.10 279.08 472.12 C 278.51 476.26 278.78 480.44 278.77 484.60 C 258.98 484.52 239.20 484.67 219.42 484.45 C 219.45 474.44 219.85 464.43 219.30 454.43 Z" fill="#faa658" opacity="1.00" stroke="#faa658" stroke-width="0.25"/>
<path d="M 301.65 455.28 C 306.22 455.67 311.17 454.76 315.53 456.19 C 315.87 460.41 316.30 464.73 315.88 468.95 C 313.67 470.30 310.83 469.74 308.36 469.69 C 305.92 469.41 303.50 469.04 301.08 468.72 C 303.53 464.58 305.49 459.88 309.62 457.09 C 306.93 456.91 303.44 457.89 301.65 455.28 Z" fill="#f69a54" opacity="1.00" stroke="#f69a54" stroke-width="0.25"/>
<path d="M 211.38 485.31 C 215.02 476.78 208.74 466.29 215.08 458.65 C 215.40 467.36 215.43 476.08 215.47 484.80 C 214.11 484.98 212.74 485.15 211.38 485.31 Z" fill="#031847" opacity="1.00" stroke="#031847" stroke-width="0.25"/>
<path d="M 323.25 462.92 C 327.04 463.59 330.53 465.25 333.97 466.91 C 333.81 466.93 333.50 466.95 333.34 466.96 C 332.03 466.94 330.71 466.89 329.41 466.80 C 326.74 466.80 324.37 465.35 323.25 462.92 Z" fill="#f69a54" opacity="1.00" stroke="#f69a54" stroke-width="0.25"/>
<path d="M 329.41 466.80 C 330.71 466.89 332.03 466.94 333.34 466.96 L 333.28 467.98 C 333.16 469.24 333.04 470.51 332.92 471.79 C 330.59 471.76 328.25 471.71 325.92 471.67 C 327.35 470.25 328.48 468.58 329.41 466.80 Z" fill="#fec79d" opacity="1.00" stroke="#fec79d" stroke-width="0.25"/>
<path d="M 333.28 467.98 C 333.19 469.99 333.20 472.01 333.23 474.03 C 334.33 474.05 336.54 474.09 337.64 474.12 C 337.57 473.28 337.43 471.62 337.36 470.79 C 337.52 471.75 337.69 472.72 337.86 473.69 C 341.76 474.62 345.67 475.46 349.60 476.24 C 354.91 477.72 360.33 478.77 365.56 480.52 C 367.48 481.07 368.62 482.81 369.87 484.23 L 368.37 485.46 C 372.44 487.10 376.83 486.18 381.08 486.44 C 375.74 486.74 370.40 486.71 365.08 486.22 C 344.36 486.67 323.66 485.44 302.95 485.85 L 302.94 485.17 C 310.05 485.25 317.17 485.13 324.29 485.18 C 324.50 480.65 323.84 475.87 325.92 471.67 C 328.25 471.71 330.59 471.76 332.92 471.79 C 333.04 470.51 333.16 469.24 333.28 467.98 Z" fill="#03144b" opacity="1.00" stroke="#03144b" stroke-width="0.25"/>
<path d="M 337.08 469.05 C 341.16 469.76 345.29 470.01 349.42 470.33 C 349.53 472.29 349.59 474.26 349.60 476.24 C 345.67 475.46 341.76 474.62 337.86 473.69 C 337.69 472.72 337.52 471.75 337.36 470.79 C 337.29 470.35 337.15 469.48 337.08 469.05 Z" fill="#e28978" opacity="1.00" stroke="#e28978" stroke-width="0.25"/>
<path d="M 279.08 472.12 C 280.25 472.10 281.42 472.12 282.59 472.18 C 282.81 476.24 283.04 480.29 283.18 484.35 C 289.61 484.55 296.06 484.57 302.50 484.47 L 302.93 484.46 L 302.94 485.17 L 302.95 485.85 C 274.63 485.78 246.31 485.99 217.99 485.82 C 207.98 486.12 197.95 485.38 187.95 486.16 C 181.30 486.40 174.64 486.09 167.98 486.18 C 165.82 486.13 163.52 486.40 161.52 485.35 C 171.50 484.92 181.51 485.31 191.50 485.25 C 198.12 485.42 204.75 485.42 211.38 485.31 C 212.74 485.15 214.11 484.98 215.47 484.80 C 216.78 484.64 218.10 484.52 219.42 484.45 C 239.20 484.67 258.98 484.52 278.77 484.60 C 278.78 480.44 278.51 476.26 279.08 472.12 Z" fill="#474964" opacity="1.00" stroke="#474964" stroke-width="0.25"/>
</svg>